<mxfile host="app.diagrams.net" modified="2021-12-19T14:29:52.353Z" agent="5.0 (Windows NT 10.0; Win64; x64) AppleWebKit/537.36 (KHTML, like Gecko) Chrome/93.0.4577.82 Safari/537.36" etag="ghIdO87UCZO64CweK8Bo" version="16.0.0" type="github">
  <diagram id="7kuaMwPRGAUrm2M8HWAu" name="第 1 页">
    <mxGraphModel dx="1886" dy="810" grid="1" gridSize="10" guides="1" tooltips="1" connect="1" arrows="1" fold="1" page="1" pageScale="1" pageWidth="827" pageHeight="1169" background="#ffffff" math="0" shadow="0">
      <root>
        <mxCell id="0" />
        <mxCell id="1" parent="0" />
        <mxCell id="QxvyjdM3-tn62D0ohr0M-6" style="rounded=0;orthogonalLoop=1;jettySize=auto;html=1;exitX=0;exitY=1;exitDx=0;exitDy=0;entryX=0.5;entryY=0;entryDx=0;entryDy=0;fontFamily=Comic Sans MS;fontSize=15;endArrow=none;endFill=0;" edge="1" parent="1" source="QxvyjdM3-tn62D0ohr0M-1" target="QxvyjdM3-tn62D0ohr0M-2">
          <mxGeometry relative="1" as="geometry" />
        </mxCell>
        <mxCell id="QxvyjdM3-tn62D0ohr0M-7" style="edgeStyle=none;rounded=0;orthogonalLoop=1;jettySize=auto;html=1;exitX=1;exitY=1;exitDx=0;exitDy=0;entryX=0.5;entryY=0;entryDx=0;entryDy=0;fontFamily=Comic Sans MS;fontSize=15;endArrow=none;endFill=0;" edge="1" parent="1" source="QxvyjdM3-tn62D0ohr0M-1" target="QxvyjdM3-tn62D0ohr0M-3">
          <mxGeometry relative="1" as="geometry" />
        </mxCell>
        <mxCell id="QxvyjdM3-tn62D0ohr0M-1" value="&lt;font face=&quot;Comic Sans MS&quot; style=&quot;font-size: 15px&quot;&gt;2&lt;/font&gt;" style="ellipse;whiteSpace=wrap;html=1;aspect=fixed;fillColor=#f8cecc;strokeColor=#b85450;" vertex="1" parent="1">
          <mxGeometry x="360" y="240" width="40" height="40" as="geometry" />
        </mxCell>
        <mxCell id="QxvyjdM3-tn62D0ohr0M-2" value="&lt;font face=&quot;Comic Sans MS&quot; style=&quot;font-size: 15px&quot;&gt;2&lt;/font&gt;" style="ellipse;whiteSpace=wrap;html=1;aspect=fixed;fillColor=#f8cecc;strokeColor=#b85450;" vertex="1" parent="1">
          <mxGeometry x="320" y="320" width="40" height="40" as="geometry" />
        </mxCell>
        <mxCell id="QxvyjdM3-tn62D0ohr0M-8" style="edgeStyle=none;rounded=0;orthogonalLoop=1;jettySize=auto;html=1;exitX=0;exitY=1;exitDx=0;exitDy=0;entryX=0.5;entryY=0;entryDx=0;entryDy=0;fontFamily=Comic Sans MS;fontSize=15;endArrow=none;endFill=0;" edge="1" parent="1" source="QxvyjdM3-tn62D0ohr0M-3" target="QxvyjdM3-tn62D0ohr0M-4">
          <mxGeometry relative="1" as="geometry" />
        </mxCell>
        <mxCell id="QxvyjdM3-tn62D0ohr0M-9" style="edgeStyle=none;rounded=0;orthogonalLoop=1;jettySize=auto;html=1;exitX=1;exitY=1;exitDx=0;exitDy=0;entryX=0.5;entryY=0;entryDx=0;entryDy=0;fontFamily=Comic Sans MS;fontSize=15;endArrow=none;endFill=0;" edge="1" parent="1" source="QxvyjdM3-tn62D0ohr0M-3" target="QxvyjdM3-tn62D0ohr0M-5">
          <mxGeometry relative="1" as="geometry" />
        </mxCell>
        <mxCell id="QxvyjdM3-tn62D0ohr0M-3" value="&lt;font style=&quot;font-size: 15px&quot; face=&quot;Comic Sans MS&quot;&gt;5&lt;/font&gt;" style="ellipse;whiteSpace=wrap;html=1;aspect=fixed;fillColor=#f8cecc;strokeColor=#b85450;" vertex="1" parent="1">
          <mxGeometry x="400" y="320" width="40" height="40" as="geometry" />
        </mxCell>
        <mxCell id="QxvyjdM3-tn62D0ohr0M-4" value="&lt;font style=&quot;font-size: 15px&quot;&gt;5&lt;/font&gt;" style="ellipse;whiteSpace=wrap;html=1;aspect=fixed;fillColor=#f8cecc;strokeColor=#b85450;" vertex="1" parent="1">
          <mxGeometry x="360" y="400" width="40" height="40" as="geometry" />
        </mxCell>
        <mxCell id="QxvyjdM3-tn62D0ohr0M-5" value="&lt;font style=&quot;font-size: 15px&quot;&gt;7&lt;/font&gt;" style="ellipse;whiteSpace=wrap;html=1;aspect=fixed;fillColor=#f8cecc;strokeColor=#b85450;" vertex="1" parent="1">
          <mxGeometry x="440" y="400" width="40" height="40" as="geometry" />
        </mxCell>
        <mxCell id="QxvyjdM3-tn62D0ohr0M-10" style="rounded=0;orthogonalLoop=1;jettySize=auto;html=1;exitX=0;exitY=1;exitDx=0;exitDy=0;entryX=0.5;entryY=0;entryDx=0;entryDy=0;fontFamily=Comic Sans MS;fontSize=15;endArrow=none;endFill=0;" edge="1" parent="1" source="QxvyjdM3-tn62D0ohr0M-12" target="QxvyjdM3-tn62D0ohr0M-13">
          <mxGeometry relative="1" as="geometry" />
        </mxCell>
        <mxCell id="QxvyjdM3-tn62D0ohr0M-11" style="edgeStyle=none;rounded=0;orthogonalLoop=1;jettySize=auto;html=1;exitX=1;exitY=1;exitDx=0;exitDy=0;entryX=0.5;entryY=0;entryDx=0;entryDy=0;fontFamily=Comic Sans MS;fontSize=15;endArrow=none;endFill=0;" edge="1" parent="1" source="QxvyjdM3-tn62D0ohr0M-12" target="QxvyjdM3-tn62D0ohr0M-14">
          <mxGeometry relative="1" as="geometry" />
        </mxCell>
        <mxCell id="QxvyjdM3-tn62D0ohr0M-12" value="&lt;font face=&quot;Comic Sans MS&quot; style=&quot;font-size: 15px&quot;&gt;2&lt;/font&gt;" style="ellipse;whiteSpace=wrap;html=1;aspect=fixed;fillColor=#f8cecc;strokeColor=#b85450;" vertex="1" parent="1">
          <mxGeometry x="120" y="240" width="40" height="40" as="geometry" />
        </mxCell>
        <mxCell id="QxvyjdM3-tn62D0ohr0M-13" value="&lt;font face=&quot;Comic Sans MS&quot; style=&quot;font-size: 15px&quot;&gt;2&lt;/font&gt;" style="ellipse;whiteSpace=wrap;html=1;aspect=fixed;fillColor=#f8cecc;strokeColor=#b85450;" vertex="1" parent="1">
          <mxGeometry x="80" y="320" width="40" height="40" as="geometry" />
        </mxCell>
        <mxCell id="QxvyjdM3-tn62D0ohr0M-14" value="&lt;font style=&quot;font-size: 15px&quot; face=&quot;Comic Sans MS&quot;&gt;2&lt;/font&gt;" style="ellipse;whiteSpace=wrap;html=1;aspect=fixed;fillColor=#f8cecc;strokeColor=#b85450;" vertex="1" parent="1">
          <mxGeometry x="160" y="320" width="40" height="40" as="geometry" />
        </mxCell>
        <mxCell id="QxvyjdM3-tn62D0ohr0M-15" style="rounded=0;orthogonalLoop=1;jettySize=auto;html=1;exitX=0;exitY=1;exitDx=0;exitDy=0;entryX=0.5;entryY=0;entryDx=0;entryDy=0;fontFamily=Comic Sans MS;fontSize=15;endArrow=none;endFill=0;" edge="1" parent="1" source="QxvyjdM3-tn62D0ohr0M-17" target="QxvyjdM3-tn62D0ohr0M-18">
          <mxGeometry relative="1" as="geometry" />
        </mxCell>
        <mxCell id="QxvyjdM3-tn62D0ohr0M-16" style="edgeStyle=none;rounded=0;orthogonalLoop=1;jettySize=auto;html=1;exitX=1;exitY=1;exitDx=0;exitDy=0;entryX=0.5;entryY=0;entryDx=0;entryDy=0;fontFamily=Comic Sans MS;fontSize=15;endArrow=none;endFill=0;" edge="1" parent="1" source="QxvyjdM3-tn62D0ohr0M-17" target="QxvyjdM3-tn62D0ohr0M-21">
          <mxGeometry relative="1" as="geometry" />
        </mxCell>
        <mxCell id="QxvyjdM3-tn62D0ohr0M-17" value="&lt;font face=&quot;Comic Sans MS&quot; style=&quot;font-size: 15px&quot;&gt;2&lt;/font&gt;" style="ellipse;whiteSpace=wrap;html=1;aspect=fixed;fillColor=#f8cecc;strokeColor=#b85450;" vertex="1" parent="1">
          <mxGeometry x="360" y="480" width="40" height="40" as="geometry" />
        </mxCell>
        <mxCell id="QxvyjdM3-tn62D0ohr0M-18" value="&lt;font face=&quot;Comic Sans MS&quot; style=&quot;font-size: 15px&quot;&gt;2&lt;/font&gt;" style="ellipse;whiteSpace=wrap;html=1;aspect=fixed;fillColor=#f8cecc;strokeColor=#b85450;" vertex="1" parent="1">
          <mxGeometry x="320" y="560" width="40" height="40" as="geometry" />
        </mxCell>
        <mxCell id="QxvyjdM3-tn62D0ohr0M-19" style="edgeStyle=none;rounded=0;orthogonalLoop=1;jettySize=auto;html=1;exitX=0;exitY=1;exitDx=0;exitDy=0;entryX=0.5;entryY=0;entryDx=0;entryDy=0;fontFamily=Comic Sans MS;fontSize=15;endArrow=none;endFill=0;" edge="1" parent="1" source="QxvyjdM3-tn62D0ohr0M-21" target="QxvyjdM3-tn62D0ohr0M-22">
          <mxGeometry relative="1" as="geometry" />
        </mxCell>
        <mxCell id="QxvyjdM3-tn62D0ohr0M-20" style="edgeStyle=none;rounded=0;orthogonalLoop=1;jettySize=auto;html=1;exitX=1;exitY=1;exitDx=0;exitDy=0;entryX=0.5;entryY=0;entryDx=0;entryDy=0;fontFamily=Comic Sans MS;fontSize=15;endArrow=none;endFill=0;" edge="1" parent="1" source="QxvyjdM3-tn62D0ohr0M-21" target="QxvyjdM3-tn62D0ohr0M-23">
          <mxGeometry relative="1" as="geometry" />
        </mxCell>
        <mxCell id="QxvyjdM3-tn62D0ohr0M-21" value="&lt;font style=&quot;font-size: 15px&quot; face=&quot;Comic Sans MS&quot;&gt;5&lt;/font&gt;" style="ellipse;whiteSpace=wrap;html=1;aspect=fixed;fillColor=#f8cecc;strokeColor=#b85450;" vertex="1" parent="1">
          <mxGeometry x="400" y="560" width="40" height="40" as="geometry" />
        </mxCell>
        <mxCell id="QxvyjdM3-tn62D0ohr0M-22" value="&lt;font style=&quot;font-size: 15px&quot;&gt;5&lt;/font&gt;" style="ellipse;whiteSpace=wrap;html=1;aspect=fixed;fillColor=#f8cecc;strokeColor=#b85450;" vertex="1" parent="1">
          <mxGeometry x="360" y="640" width="40" height="40" as="geometry" />
        </mxCell>
        <mxCell id="QxvyjdM3-tn62D0ohr0M-23" value="&lt;font style=&quot;font-size: 15px&quot;&gt;7&lt;/font&gt;" style="ellipse;whiteSpace=wrap;html=1;aspect=fixed;fillColor=#f8cecc;strokeColor=#b85450;" vertex="1" parent="1">
          <mxGeometry x="440" y="640" width="40" height="40" as="geometry" />
        </mxCell>
        <mxCell id="QxvyjdM3-tn62D0ohr0M-24" value="" style="endArrow=none;html=1;rounded=0;fontFamily=Comic Sans MS;fontSize=15;dashed=1;" edge="1" parent="1">
          <mxGeometry width="50" height="50" relative="1" as="geometry">
            <mxPoint x="280" y="540" as="sourcePoint" />
            <mxPoint x="520" y="540" as="targetPoint" />
          </mxGeometry>
        </mxCell>
        <mxCell id="QxvyjdM3-tn62D0ohr0M-25" value="" style="endArrow=none;html=1;rounded=0;fontFamily=Comic Sans MS;fontSize=15;dashed=1;" edge="1" parent="1">
          <mxGeometry width="50" height="50" relative="1" as="geometry">
            <mxPoint x="280" y="620" as="sourcePoint" />
            <mxPoint x="520" y="620" as="targetPoint" />
          </mxGeometry>
        </mxCell>
        <mxCell id="QxvyjdM3-tn62D0ohr0M-26" value="最小值为5" style="text;html=1;strokeColor=none;fillColor=none;align=center;verticalAlign=middle;whiteSpace=wrap;rounded=0;fontFamily=Comic Sans MS;fontSize=15;" vertex="1" parent="1">
          <mxGeometry x="520" y="640" width="120" height="40" as="geometry" />
        </mxCell>
        <mxCell id="QxvyjdM3-tn62D0ohr0M-27" value="最小值为2" style="text;html=1;strokeColor=none;fillColor=none;align=center;verticalAlign=middle;whiteSpace=wrap;rounded=0;fontFamily=Comic Sans MS;fontSize=15;" vertex="1" parent="1">
          <mxGeometry x="520" y="560" width="120" height="40" as="geometry" />
        </mxCell>
        <mxCell id="QxvyjdM3-tn62D0ohr0M-28" value="最小值为2" style="text;html=1;strokeColor=none;fillColor=none;align=center;verticalAlign=middle;whiteSpace=wrap;rounded=0;fontFamily=Comic Sans MS;fontSize=15;" vertex="1" parent="1">
          <mxGeometry x="520" y="480" width="120" height="40" as="geometry" />
        </mxCell>
      </root>
    </mxGraphModel>
  </diagram>
</mxfile>
